<svg xmlns="http://www.w3.org/2000/svg" version="1.1" xmlns:xlink="http://www.w3.org/1999/xlink" xmlns:svgjs="http://svgjs.dev/svgjs" width="1440" height="560" preserveAspectRatio="none" viewBox="0 0 1440 560"><g mask="url(&quot;#SvgjsMask1000&quot;)" fill="none"><rect width="1440" height="560" x="0" y="0" fill="#0e2a47"></rect><path d="M0,507.25C115.82,514.013,240.559,588.78,340.276,529.48C439.782,470.306,434.916,325.89,482.469,220.336C529.713,115.467,625.241,25.861,618.898,-88.984C612.429,-206.111,517.364,-293.71,448.821,-388.906C373.345,-493.732,320.617,-633.644,197.839,-673.778C74.762,-714.01,-50.383,-631.126,-173.97,-592.488C-295.215,-554.582,-432.193,-542.464,-518.957,-449.679C-606.775,-355.767,-637.692,-220.778,-641.734,-92.267C-645.52,28.095,-599.621,141.889,-540.872,247.008C-485.738,345.66,-417.498,442.177,-315.66,491.177C-218.759,537.801,-107.351,500.981,0,507.25" fill="#0b2239"></path><path d="M1440 1131.1109999999999C1544.994 1134.54 1610.721 1019.95 1699.446 963.706 1788.8899999999999 907.005 1924.588 897.578 1963.664 799.149 2002.9769999999999 700.123 1896.02 601.986 1885.124 496.001 1873.526 383.185 1957.634 259.544 1898.258 162.918 1839.296 66.96499999999997 1703.8980000000001 60.872000000000014 1596.6399999999999 26.533000000000015 1486.632-8.686000000000035 1377.168-62.14200000000005 1263.76-40.21900000000005 1145.763-17.408999999999992 1041.167 55.456999999999994 965.2139999999999 148.596 890.495 240.221 865.117 357.975 844.151 474.33 822.501 594.48 769.618 734.745 841.864 833.159 915.848 933.94 1079.314 891.365 1191.22 947.1089999999999 1285.452 994.049 1334.78 1127.675 1440 1131.1109999999999" fill="#113255"></path></g><defs><mask id="SvgjsMask1000"><rect width="1440" height="560" fill="#ffffff"></rect></mask></defs></svg>